# xmcd
#
# Track frame offsets:
#	150
#	17788
#	33330
#	51131
#	63383
#	75962
#	88749
#	102647
#	117991
#	131074
#
# Disc length: 1939 seconds
#
# Revision: 0
# Processed by: cddbd v1.5.2PL0 Copyright (c) Steve Scherf et al.
# Submitted via: EasyCDDAExtractor 2010.4.0.0
#
DISCID=8007910a
DTITLE=Crystal Gayle - True Love
DYEAR=1900
DGENRE=Country
TTITLE0=Our Love Is On The Faultline
TTITLE1=Deeper In The Fire
TTITLE2=Till I Gain Control Again
TTITLE3=Baby, What About You
TTITLE4=You Bring Out The Lover In Me
TTITLE5=True Love
TTITLE6=Everything I Own
TTITLE7=Let Your Feelings Show
TTITLE8=Easier Said Than Done
TTITLE9=He Is Beautiful To Me
EXTD=
EXTT0=
EXTT1=
EXTT2=
EXTT3=
EXTT4=
EXTT5=
EXTT6=
EXTT7=
EXTT8=
EXTT9=
PLAYORDER=
